# xmcd
#
# Track frame offsets:
#	150
#	13143
#	26536
#	40226
#	53771
#	66724
#	79060
#	91783
#	103109
#	115410
#	128498
#	142343
#	156155
#	169648
#	182542
#	197003
#	211800
#	224849
#	240303
#	254054
#	268310
#	282133
#	294676
#	303618
#	315998
#
# Disc length: 4376 seconds
# Revision: 0
# Processed by: cddbd v1.5.2PL0 Copyright (c) Steve Scherf et al.
# Submitted via: dBpowerAMP V12.0
#
DISCID=7b111619
DTITLE=Various Artist - The Complete History of The Blues (1920 - 1962), Disc 3
DYEAR=2015
DGENRE=Blues
TTITLE0=Robert Johnson - Ramblin' on my Mind
TTITLE1=Johnnie Temple - Louise, Louise Blues
TTITLE2=Bukka White - Shake 'em on Down
TTITLE3=Sonny Boy Williamson - Good Morning, Little School Girl
TTITLE4=Big Joe Turner - Roll 'em, Pete
TTITLE5=Blind Boy Fuller - I Want Some of Your Pie
TTITLE6=Tommy Mcclennan - Bottle it up And go
TTITLE7=Tampa Red - It Hurts me Too
TTITLE8=Champion Jack Dupree - Junker Blues
TTITLE9=Robert Petway - Catfish Blues
TTITLE10=Pete Johnson and Albert Ammons - Barrelhouse Boogie
TTITLE11=Big Bill Broonzy - Key to The Highway
TTITLE12=Tony Hollins - Crawlin' King Snake
TTITLE13=Big Maceo - Worried Life Blues
TTITLE14=Big Louis Jimmy - Goin' Down Slow
TTITLE15=Charles Brown - Drifting Blues
TTITLE16=Arthur 'big Boy' Crudup - That's All Right
TTITLE17=Big Joe Williams - Baby Please Don't go
TTITLE18=T-Bone Walker - Call it Stormy Monday
TTITLE19=John Lee Hooker - Boogie Chillen
TTITLE20=Robert Nighthawk - Black Angel Blues
TTITLE21=Lightnin' Hopkins - Automobile Blues
TTITLE22=Jimmy Rogers - Ludella
TTITLE23=Elmore James - Dust my Broom
TTITLE24=Little Walter - Juke
EXTD=
EXTT0=
EXTT1=
EXTT2=
EXTT3=
EXTT4=
EXTT5=
EXTT6=
EXTT7=
EXTT8=
EXTT9=
EXTT10=
EXTT11=
EXTT12=
EXTT13=
EXTT14=
EXTT15=
EXTT16=
EXTT17=
EXTT18=
EXTT19=
EXTT20=
EXTT21=
EXTT22=
EXTT23=
EXTT24=
PLAYORDER=
